<svg width="17" height="17" viewBox="0 0 17 17" fill="none" xmlns="http://www.w3.org/2000/svg">
<path d="M15.4002 16.393L9.90436 10.8973C9.46819 11.2462 8.96659 11.5224 8.39957 11.726C7.83254 11.9295 7.22917 12.0313 6.58945 12.0313C5.00468 12.0313 3.66359 11.4823 2.56618 10.3843C1.46877 9.28632 0.919771 7.94523 0.919189 6.36105C0.919189 4.77629 1.46819 3.4352 2.56618 2.33779C3.66417 1.24037 5.00526 0.691377 6.58945 0.690796C8.17421 0.690796 9.51559 1.23979 10.6136 2.33779C11.7116 3.43578 12.2603 4.77687 12.2597 6.36105C12.2597 7.00077 12.1579 7.60415 11.9544 8.17117C11.7508 8.7382 11.4746 9.2398 11.1256 9.67597L16.6214 15.1718L15.4002 16.393ZM6.58945 10.2866C7.67988 10.2866 8.60689 9.90511 9.37049 9.14209C10.1341 8.37908 10.5156 7.45207 10.515 6.36105C10.515 5.27062 10.1335 4.34389 9.37049 3.58088C8.60747 2.81787 7.68046 2.43607 6.58945 2.43549C5.49901 2.43549 4.57229 2.81729 3.80928 3.58088C3.04626 4.34448 2.66447 5.2712 2.66388 6.36105C2.66388 7.45149 3.04568 8.3785 3.80928 9.14209C4.57287 9.90569 5.49959 10.2872 6.58945 10.2866Z" fill="#9EC8BA"/>
</svg>
